FFmpeg version SVN-r25716, Copyright (c) 2000-2010 the FFmpeg developers  built on Nov 10 2010 12:23:18 with gcc 4.1.2 20080704 (Red Hat 4.1.2-48)  configuration: --enable-libmp3lame --enable-shared --disable-mmx --arch=x86_64  libavutil     50.33. 0 / 50.33. 0  libavcore      0.12. 1 /  0.12. 1  libavcodec    52.94. 4 / 52.94. 4  libavformat   52.84. 0 / 52.84. 0  libavdevice   52. 2. 2 / 52. 2. 2  libavfilter    1.59. 0 /  1.59. 0  libswscale     0.12. 0 /  0.12. 0Input #0, avi, from '/RAID10/data/converted_video_files/47562.avi':  Duration: 00:00:06.96, start: 0.000000, bitrate: 31557 kb/s    Stream #0.0: Video: msvideo1, rgb555le, 1024x1024, 30 tbr, 30 tbn, 30 tbc[buffer @ 0x7167510] w:1024 h:1024 pixfmt:rgb555le[ffsink @ 0x7184de0] auto-inserting filter 'auto-inserted scaler 0' between the filter 'src' and the filter 'out'[scale @ 0x7185100] w:1024 h:1024 fmt:rgb555le -> w:1024 h:1024 fmt:yuv420p flags:0x4Output #0, flv, to '/RAID10/data/converted_video_files/47562.flv':  Metadata:    encoder         : Lavf52.84.0    Stream #0.0: Video: flv, yuv420p, 1024x1024, q=2-31, 600 kb/s, 1k tbn, 24 tbcStream mapping:  Stream #0.0 -> #0.0Press [q] to stop encodingframe=    8 fps=  0 q=12.3 size=     532kB time=0.33 bitrate=13099.4kbits/s dup=0 drop=1    frame=   16 fps= 15 q=31.0 size=     581kB time=0.67 bitrate=7140.7kbits/s dup=0 drop=3    frame=   25 fps= 15 q=24.8 size=     620kB time=1.04 bitrate=4870.8kbits/s dup=0 drop=6    frame=   34 fps= 16 q=31.0 size=     639kB time=1.42 bitrate=3696.2kbits/s dup=0 drop=8    frame=   44 fps= 17 q=31.0 size=     677kB time=1.83 bitrate=3026.5kbits/s dup=0 drop=10    frame=   54 fps= 17 q=31.0 size=     715kB time=2.25 bitrate=2604.9kbits/s dup=0 drop=13    frame=   63 fps= 17 q=31.0 size=     759kB time=2.62 bitrate=2367.9kbits/s dup=0 drop=15    frame=   72 fps= 17 q=31.0 size=     768kB time=3.00 bitrate=2096.1kbits/s dup=0 drop=18    frame=   82 fps= 17 q=31.0 size=     806kB time=3.42 bitrate=1931.2kbits/s dup=0 drop=20    frame=   92 fps= 18 q=31.0 size=     847kB time=3.83 bitrate=1809.4kbits/s dup=0 drop=22    frame=  101 fps= 18 q=31.0 size=     884kB time=4.21 bitrate=1721.1kbits/s dup=0 drop=25    frame=  111 fps= 18 q=31.0 size=     923kB time=4.62 bitrate=1634.8kbits/s dup=0 drop=27    frame=  121 fps= 18 q=24.8 size=     962kB time=5.04 bitrate=1563.8kbits/s dup=0 drop=30    frame=  130 fps= 18 q=31.0 size=     973kB time=5.42 bitrate=1470.9kbits/s dup=0 drop=32    frame=  138 fps= 18 q=31.0 size=    1008kB time=5.75 bitrate=1435.7kbits/s dup=0 drop=34    frame=  147 fps= 18 q=31.0 size=    1044kB time=6.12 bitrate=1396.5kbits/s dup=0 drop=36    frame=  156 fps= 18 q=31.0 size=    1054kB time=6.50 bitrate=1328.8kbits/s dup=0 drop=39    frame=  165 fps= 18 q=31.0 size=    1089kB time=6.88 bitrate=1297.1kbits/s dup=0 drop=41    frame=  167 fps= 18 q=31.0 Lsize=    1091kB time=6.96 bitrate=1284.1kbits/s dup=0 drop=42    video:1088kB audio:0kB global headers:0kB muxing overhead 0.258722%